<svg xmlns="http://www.w3.org/2000/svg" width="26" height="208"><circle fill-opacity=".78" cy="117" cx="13" r="11" fill="#fff"/><circle fill-opacity=".78" cy="143" cx="13" r="11" fill="#fff"/><circle cy="169" cx="13" r="7" fill="none" stroke="#000" stroke-width="2"/><circle cy="195" cx="13" r="7" fill="none" stroke="#000" stroke-width="2"/><circle cx="13" cy="195" r="2.5"/><path d="M5 83v6h2v-4h4v-2zm10 0v2h4v4h2v-6zm-5 5v6h6v-6zm-5 5v6h6v-2H7v-4zm14 0v4h-4v2h6v-6zm-6 17a7 7 0 0 0-7 7 7 7 0 0 0 7 7 7 7 0 0 0 7-7 7 7 0 0 0-7-7zm-1 3h2v2h-2zm0 3h2v5h-2zM5 57v6h2v-4h4v-2zm10 0v2h4v4h2v-6zM5 67v6h6v-2H7v-4zm14 0v4h-4v2h6v-6zm-2-29v2H9v-2zM12 9v3H9v2h3v3h2v-3h3v-2h-3V9zm1 127l-6.125 6.125h4.375V150h3.5v-7.875h4.375zm-2.572 37.33v-5.77l5-2.89v5.77zm1-1.73l3-1.73-3-1.74z"/></svg>